# xmcd
#
# Track frame offsets: 
#        150
#        15042
#        32132
#        47802
#        61470
#        75717
#        93022
#        108407
#        136382
#        152020
#        166457
#        190132
#
# Disc length: 2708 seconds
#
# Revision: 0
# Processed by: cddbd v1.5.2PL0 Copyright (c) Steve Scherf et al.
# Submitted via: ExactAudioCopy v0.99pb4
#
DISCID=8c0a920c
DTITLE=Various Artist - The Smoocher is Back
DYEAR=1900
DGENRE=Rare Groove
TTITLE0=Gloria Scott - Every Time You're Near Me
TTITLE1=Sass - I Only Wanted to Love You
TTITLE2=Mystique - Fill You Up
TTITLE3=Ace Spectrum - Pick Up
TTITLE4=The Isley Brothers - My Love is Your Love
TTITLE5=The Checkmates - Got to See U Soon
TTITLE6=Margie Joseph - Let's Stay Together
TTITLE7=The Valentine Brothers - This Kind of Love
TTITLE8=Vitamine E - Sharing
TTITLE9=Erma Franklin - Open Up Your Soul
TTITLE10=Norman Connors - Sing a Love Song
TTITLE11=The Sandpeebles - I Just Didn't Hear Me the First Time
EXTD=
EXTT0=
EXTT1=
EXTT2=
EXTT3=
EXTT4=
EXTT5=
EXTT6=
EXTT7=
EXTT8=
EXTT9=
EXTT10=
EXTT11=
PLAYORDER=
